STARTFONT 2.1
FONT -MIT-S40HBR KST-Medium-R-Normal--64-23-200-200-P-21-ISO8859-1
SIZE 23 200 200
FONTBOUNDINGBOX 26 64 0 -14
STARTPROPERTIES 17
ADD_STYLE_NAME ""
AVERAGE_WIDTH 21
CHARSET_ENCODING "1"
CHARSET_REGISTRY "ISO8859"
DEFAULT_CHAR 0
FAMILY "S40HBR KST"
FONT_ASCENT 50
FONT_DESCENT 14
FOUNDRY "MIT"
PIXEL_SIZE 64
POINT_SIZE 23
RESOLUTION_X 200
RESOLUTION_Y 200
SETWIDTH_NAME "Normal"
SLANT "R"
SPACING "P"
WEIGHT_NAME "Medium"
ENDPROPERTIES
CHARS 23
STARTCHAR char38
ENCODING 38
SWIDTH 989 0
DWIDTH 23 0
BBX 20 64 0 -14
BITMAP
000000
000000
000000
000000
000000
000000
000000
000000
000000
000000
000000
000000
000000
000000
000000
000000
000000
000000
000000
000000
400200
780700
7E07C0
FF07E0
FF07F0
FF07F0
7F07F0
7F07F0
1F03F0
0101F0
010160
018120
01C200
01F200
01FA00
00FC00
007E00
007F00
001F80
001FC0
000FC0
0007E0
0FFFE0
1FFFE0
1FFFE0
3FFFE0
3FFFC0
3FFFC0
3FFE00
000000
000000
000000
000000
000000
000000
000000
000000
000000
000000
000000
000000
000000
000000
000000
ENDCHAR
STARTCHAR char46
ENCODING 46
SWIDTH 215 0
DWIDTH 5 0
BBX 3 64 0 -14
BITMAP
00
00
00
00
00
00
00
00
00
00
00
00
00
00
00
00
00
00
00
00
00
00
00
00
00
00
00
00
00
00
00
00
00
00
00
00
00
00
00
00
00
00
00
00
00
E0
E0
E0
E0
00
00
00
00
00
00
00
00
00
00
00
00
00
00
00
ENDCHAR
STARTCHAR char65
ENCODING 65
SWIDTH 1118 0
DWIDTH 26 0
BBX 23 64 0 -14
BITMAP
000000
000000
000000
000000
000000
000000
000000
000000
000000
000000
000000
000000
000000
000000
000000
000000
000000
000100
300180
3003E0
7003F0
7003F8
7803FC
FC03FC
FE03FE
FF03FE
FF81FE
7FC07C
7FE07C
3FF05C
1FFCCC
1FFE80
1FFF80
13FF80
21FFE0
60FFF0
707FF8
701FFC
780FFE
7C07FE
7E01FE
7F00FE
7F807E
7F803E
7F801E
3F800C
3F800C
7F000C
FE0018
000008
000000
000000
000000
000000
000000
000000
000000
000000
000000
000000
000000
000000
000000
000000
ENDCHAR
STARTCHAR char66
ENCODING 66
SWIDTH 1118 0
DWIDTH 26 0
BBX 23 64 0 -14
BITMAP
000000
000000
000000
000000
000000
000000
000000
000000
000000
000000
000000
000000
000000
000000
000000
000000
000000
100000
1FFC00
1FFF80
1FFFC0
3FFFE0
3FFFE0
1FFFE0
1FFFF0
1FFFF0
0FFFF0
0001F0
000070
000030
000030
000030
000010
000010
000010
000010
000010
000010
000010
000010
000010
3FFFFE
3FFFFE
3FFFFC
7FFFFC
7FFFF8
FFFFF8
FFFFF0
FFFFF0
000000
000000
000000
000000
000000
000000
000000
000000
000000
000000
000000
000000
000000
000000
000000
ENDCHAR
STARTCHAR char67
ENCODING 67
SWIDTH 1075 0
DWIDTH 25 0
BBX 22 64 0 -14
BITMAP
000000
000000
000000
000000
000000
000000
000000
000000
000000
000000
000000
000000
000000
000000
000000
000000
000000
000000
400000
400000
7FFC00
FFFF00
FFFFC0
FFFFC0
7FFFE0
7FFFF0
7FFFF0
1FFFF0
1001F8
300038
200018
600018
600008
400008
400008
40000C
E0000C
E0000C
E0000C
600008
600008
7FFF18
7FFFF8
7FFFF0
7FFFE0
7FFFE0
7FFFC0
7FFF80
7FFF80
000000
000000
000000
000000
000000
000000
000000
000000
000000
000000
000000
000000
000000
000000
000000
ENDCHAR
STARTCHAR char68
ENCODING 68
SWIDTH 1075 0
DWIDTH 25 0
BBX 22 64 0 -14
BITMAP
000000
000000
000000
000000
000000
000000
000000
000000
000000
000000
000000
000000
000000
000000
000000
000000
000000
200000
7FF800
7FFFF8
7FFFFC
FFFFFC
FFFFFC
7FFFFC
7FFFFC
7FFFFC
3FFFFC
000030
000030
000010
000010
000010
000010
000010
000010
000018
000018
000018
000018
000018
000018
000018
000038
000038
000038
000038
000030
000020
000060
000000
000000
000000
000000
000000
000000
000000
000000
000000
000000
000000
000000
000000
000000
000000
ENDCHAR
STARTCHAR char71
ENCODING 71
SWIDTH 645 0
DWIDTH 15 0
BBX 13 64 0 -14
BITMAP
0000
0000
0000
0000
0000
0000
0000
0000
0000
0000
0000
0000
0000
0000
0000
0000
0000
0C00
0E00
1FC0
1FE0
1FF0
1FF0
1FF0
0FF0
0FF0
07F0
00F0
0030
0020
0020
0020
0020
0020
0020
0030
0030
0030
0030
0030
0070
3FF0
3FB0
7F38
7F18
7F18
7F10
7E10
FE10
0000
0000
0000
0000
0000
0000
0000
0000
0000
0000
0000
0000
0000
0000
0000
ENDCHAR
STARTCHAR char72
ENCODING 72
SWIDTH 1075 0
DWIDTH 25 0
BBX 22 64 0 -14
BITMAP
000000
000000
000000
000000
000000
000000
000000
000000
000000
000000
000000
000000
000000
000000
000000
000000
000000
200000
7FE000
7FFFF8
7FFFFC
7FFFFC
7FFFFC
7FFFFC
7FFFFC
3FFFFC
1FFFFC
000018
000018
000018
000018
000018
100018
300018
200018
600018
600018
E00018
E00018
E00018
E0001C
E0001C
E0001C
E0001C
E0001C
C00018
C00018
800018
800000
000000
000000
000000
000000
000000
000000
000000
000000
000000
000000
000000
000000
000000
000000
000000
ENDCHAR
STARTCHAR char74
ENCODING 74
SWIDTH 1075 0
DWIDTH 25 0
BBX 22 64 0 -14
BITMAP
000000
000000
000000
000000
000000
000000
000000
000000
000000
000000
000000
000000
000000
000000
000000
000000
600300
7E0380
7F07E0
7F87F0
7F87F8
7FC7FC
7FC7FC
7FC7F8
3FC3F8
0FC1F8
0400F0
040030
0C0030
0C0020
0C0020
0E0060
0E0040
060040
0700C0
0700C0
070080
070180
030380
030780
030F00
011F00
01FF00
01FF00
01FF00
07FF00
0FFE00
1FFC00
3FF800
7FF000
7FC000
7F8000
7F0000
7C0000
780000
700000
E00000
800000
000000
000000
000000
000000
000000
000000
ENDCHAR
STARTCHAR char75
ENCODING 75
SWIDTH 1075 0
DWIDTH 25 0
BBX 22 64 0 -14
BITMAP
000000
000000
000000
000000
000000
000000
000000
000000
000000
000000
000000
000000
000000
000000
000000
000000
000000
080000
1F6000
1FFF80
1FFFC0
1FFFE0
1FFFF0
1FFFF0
0FFFF8
0FFFF8
07FFF8
0000FC
00003C
00000C
00000C
000004
000004
000004
000004
000004
000004
000004
000004
000004
1FE00C
3FFFFC
3FFFFC
7FFFF8
7FFFF0
FFFFF0
FFFFE0
FFFFE0
8000E0
000000
000000
000000
000000
000000
000000
000000
000000
000000
000000
000000
000000
000000
000000
000000
ENDCHAR
STARTCHAR char76
ENCODING 76
SWIDTH 1118 0
DWIDTH 26 0
BBX 23 64 0 -14
BITMAP
100000
380000
380000
3C0000
180000
180000
180000
100000
100000
300000
200000
600000
600000
600000
600000
600000
E00000
F00000
F80000
FFFFC0
FFFFF0
FFFFF8
FFFFFC
7FFFFC
7FFFFC
7FFFFE
1FFFFE
00007E
00001E
00000E
00000E
00000E
000006
000006
00000C
00000C
00001C
000038
000070
0000E0
000380
000F00
001E00
001E00
003C00
007800
007800
007800
007000
003000
000000
000000
000000
000000
000000
000000
000000
000000
000000
000000
000000
000000
000000
000000
ENDCHAR
STARTCHAR char77
ENCODING 77
SWIDTH 1247 0
DWIDTH 29 0
BBX 26 64 0 -14
BITMAP
00000000
00000000
00000000
00000000
00000000
00000000
00000000
00000000
00000000
00000000
00000000
00000000
00000000
00000000
00000000
00000000
00000000
18038000
3807C000
3C07F000
7E07F800
7F0FFC00
7F8FFE00
FF8FFE00
7F9FFF00
7FFFFF00
7FC1FF00
3F003F80
1E000F80
0C000780
08000780
18000380
10000180
30000180
300001C0
300001C0
700001C0
70000180
70000180
70000180
70000180
70FFFF80
71FFFF00
71FFFF00
73FFFF00
63FFFF00
67FFFE00
47FFFE00
07FFFC00
00000000
00000000
00000000
00000000
00000000
00000000
00000000
00000000
00000000
00000000
00000000
00000000
00000000
00000000
00000000
ENDCHAR
STARTCHAR char78
ENCODING 78
SWIDTH 602 0
DWIDTH 14 0
BBX 12 64 0 -14
BITMAP
0000
0000
0000
0000
0000
0000
0000
0000
0000
0000
0000
0000
0000
0000
0000
0000
0C00
0E00
0FC0
1FE0
1FF0
1FF0
1FF0
0FF0
0FF0
07F0
0060
0020
0020
0020
0020
0020
0020
0020
0020
0060
0060
0070
0060
0070
7FF0
7FF0
7FF0
7FE0
FFE0
FFE0
FFE0
FFC0
E8C0
0000
0000
0000
0000
0000
0000
0000
0000
0000
0000
0000
0000
0000
0000
0000
ENDCHAR
STARTCHAR char80
ENCODING 80
SWIDTH 1032 0
DWIDTH 24 0
BBX 21 64 0 -14
BITMAP
000000
000000
000000
000000
000000
000000
000000
000000
000000
000000
000000
000000
000000
000000
000000
000000
000000
000000
000000
000000
080000
0FF800
1FFF00
1FFF80
1FFFE0
1FFFE0
0FFFF0
0FFFF0
0FFFF8
0801F8
180078
1F0038
1FC018
3FE018
3FE008
3FE008
1FE008
1FC008
3F8008
400008
000008
000008
3FFFF8
3FFFF8
7FFFF0
7FFFF0
FFFFE0
FFFFE0
FFFFC0
000000
000000
000000
000000
000000
000000
000000
000000
000000
000000
000000
000000
000000
000000
000000
ENDCHAR
STARTCHAR char81
ENCODING 81
SWIDTH 1032 0
DWIDTH 24 0
BBX 21 64 0 -14
BITMAP
000000
000000
000000
000000
000000
000000
000000
000000
000000
000000
000000
000000
000000
000000
000000
000000
000000
000000
800000
FFFE00
FFFF80
FFFF80
FFFFC0
FFFFE0
FFFFE0
7FFFE0
3FFFF0
0000F0
000030
000030
100010
200010
600018
400018
C00018
C00010
800018
800018
800010
800010
800030
C000E0
C01FE0
C07FC0
C0FF00
C1FC00
C3C000
E60000
E40000
E00000
E00000
E00000
E00000
E00000
E00000
E00000
E00000
E00000
E00000
E00000
C00000
C00000
C00000
800000
ENDCHAR
STARTCHAR char82
ENCODING 82
SWIDTH 989 0
DWIDTH 23 0
BBX 20 64 0 -14
BITMAP
000000
000000
000000
000000
000000
000000
000000
000000
000000
000000
000000
000000
000000
000000
000000
000000
000000
000000
800000
FC0000
FFFF80
FFFFC0
FFFFE0
FFFFE0
FFFFE0
FFFFF0
7FFFF0
0015F0
000030
000030
000010
000010
000010
000010
000010
000010
000030
000010
000030
000030
000030
000030
000030
000030
000030
000030
000030
000030
000020
000000
000000
000000
000000
000000
000000
000000
000000
000000
000000
000000
000000
000000
000000
000000
ENDCHAR
STARTCHAR char83
ENCODING 83
SWIDTH 1075 0
DWIDTH 25 0
BBX 22 64 0 -14
BITMAP
000000
000000
000000
000000
000000
000000
000000
000000
000000
000000
000000
000000
000000
000000
000000
000000
000000
000000
000000
000000
402020
E07070
F8F8F8
FCFCFC
FCFCFC
FCFEFC
FCFEFC
FCFE7C
7C7C7C
7C7C3C
404018
404018
40C010
C08030
C18020
C10060
C300E0
C200C0
C601C0
4401C0
680380
780F80
7FFF80
7FFF80
7FFF00
7FFF00
7FFF00
7FFF00
7FFF00
000000
000000
000000
000000
000000
000000
000000
000000
000000
000000
000000
000000
000000
000000
000000
ENDCHAR
STARTCHAR char84
ENCODING 84
SWIDTH 1161 0
DWIDTH 27 0
BBX 24 64 0 -14
BITMAP
000000
000000
000000
000000
000000
000000
000000
000000
000000
000000
000000
000000
000000
000000
000000
000000
000000
000000
600000
780780
FE07E0
FF07F0
FF0FF8
FF8FFC
FF8FFC
FF8FFC
7F9FFE
3F1CFE
1F181E
18300E
102007
302003
202003
606001
706001
700001
700001
700001
700001
700001
700001
3EFF01
3FFFFE
3FFFFE
3FFFFE
3FFFFE
3FFFFE
3FFFFE
3FFFFC
000000
000000
000000
000000
000000
000000
000000
000000
000000
000000
000000
000000
000000
000000
000000
ENDCHAR
STARTCHAR char86
ENCODING 86
SWIDTH 473 0
DWIDTH 11 0
BBX 9 64 0 -14
BITMAP
0000
0000
0000
0000
0000
0000
0000
0000
0000
0000
0000
0000
0000
0000
0000
0000
0000
4000
F000
FE00
FF00
FF80
FF80
FF80
FF80
7F80
3F80
1F80
0300
0300
0300
0300
0300
0300
0300
0300
0300
0300
0300
0300
0300
0300
0300
0300
0300
0300
0700
0700
0600
0600
0000
0000
0000
0000
0000
0000
0000
0000
0000
0000
0000
0000
0000
0000
ENDCHAR
STARTCHAR char87
ENCODING 87
SWIDTH 1032 0
DWIDTH 24 0
BBX 21 64 0 -14
BITMAP
000000
000000
000000
000000
000000
000000
000000
000000
000000
000000
000000
000000
000000
000000
000000
000000
000000
000000
000000
000000
100000
1FFE00
3FFF80
3FFFC0
3FFFE0
3FFFE0
3FFFE0
1FFFF0
1FFFE0
180070
100030
100030
300030
300030
300030
300030
300030
380030
3C0030
1C0030
1C0030
3E0030
7E0030
FE0030
FE0030
FE0030
FC0038
FC0030
F00020
000000
000000
000000
000000
000000
000000
000000
000000
000000
000000
000000
000000
000000
000000
000000
ENDCHAR
STARTCHAR char88
ENCODING 88
SWIDTH 1075 0
DWIDTH 25 0
BBX 22 64 0 -14
BITMAP
000000
000000
000000
000000
000000
000000
000000
000000
000000
000000
000000
000000
000000
000000
000000
000000
000000
600000
7FFFE0
7FFFFC
7FFFFC
7FFFFC
7FFFFC
7FFFFC
7FFFFC
3FFFFC
1FFFFC
300018
300018
200018
600008
600008
60000C
60000C
E0000C
E0000C
E0000C
E0000C
E0000C
E0000C
E0000C
E0000C
E0000C
E0000C
C0000C
C0000C
80000C
800018
800018
000000
000000
000000
000000
000000
000000
000000
000000
000000
000000
000000
000000
000000
000000
000000
ENDCHAR
STARTCHAR char89
ENCODING 89
SWIDTH 516 0
DWIDTH 12 0
BBX 10 64 0 -14
BITMAP
0000
0000
0000
0000
0000
0000
0000
0000
0000
0000
0000
0000
0000
0000
0000
0000
0000
0000
4000
7800
7F00
FF80
FF80
FFC0
7FC0
7FC0
3FC0
0FC0
0180
0080
0080
0080
0080
0080
0080
0080
0000
0000
0000
0000
0000
0000
0000
0000
0000
0000
0000
0000
0000
0000
0000
0000
0000
0000
0000
0000
0000
0000
0000
0000
0000
0000
0000
0000
ENDCHAR
STARTCHAR char90
ENCODING 90
SWIDTH 473 0
DWIDTH 11 0
BBX 9 64 0 -14
BITMAP
0000
0000
0000
0000
0000
0000
0000
0000
0000
0000
0000
0000
0000
0000
0000
0000
0000
C000
F800
FF00
FF80
FF80
FF80
FF80
FF80
7F80
1F80
0C80
0C00
0C00
0C00
0C00
0C00
0C00
0C00
0C00
1E00
0E00
0E00
0E00
0E00
0E00
0E00
0E00
0C00
0C00
0C00
0C00
0400
0000
0000
0000
0000
0000
0000
0000
0000
0000
0000
0000
0000
0000
0000
0000
ENDCHAR
ENDFONT
